<?xml version="1.0" encoding="utf-8"?>
<svg viewBox="0 0 1024 1024" width="1024" height="1024" xmlns="http://www.w3.org/2000/svg">
  <ellipse style="paint-order: fill; fill: rgb(43, 69, 143); stroke: rgb(43, 69, 143);" cx="512.083" cy="512.288" rx="482.412" ry="476.621"/>
  <g id="#000002ff" style="pointer-events: none;"/>
  <g id="#fbc801ff" style="pointer-events: none;">
    <path id="path11" d="M 326.87 86.79 C 435.41 40.79 561.19 36.62 671.87 77.26 C 794.47 122.12 896.67 219.39 945 341 C 1004.59 489.93 981.2 673.37 876 796.05 C 901 720.07 927.9 642.11 925.91 560.99 C 921.55 478.51 904.47 391.6 851.06 325.93 C 803.15 266 724.38 233.15 648.13 239.93 C 645.97 211.35 624.93 190.13 613.78 165.22 C 605.29 157.43 594.41 170.28 600.37 178.7 C 613.8 205.7 636.79 231.37 631.07 264.02 C 623.65 298.85 607.19 331.08 590.06 362.01 C 585.8 385.53 579.88 409.97 562.64 427.71 C 531.19 463.43 480.76 467.56 436.89 475.04 C 453.42 469.91 469.072 454.61 463.902 433.84 C 456.702 387.8 418.44 360.17 401.92 318.03 C 392.29 294.53 381.48 269.65 387.48 243.65 C 391.33 221.33 407.39 204.12 416.24 184.09 C 421.69 174.99 408.45 162.94 401.76 172.75 C 392.83 190.67 380.36 207.18 373.4 226.22 C 363.79 252.02 366.81 280.9 377.07 305.97 C 310.52 301.05 243.06 327.25 194.24 372.24 C 147.63 415.19 125.29 477.7 115.94 539.01 C 104.55 610.56 115.7 684.69 143.8 751.15 C 151.2 772.7 163.5 793.31 165.47 816.13 C 18.01 663.68 7.03 404.49 136.79 237.79 C 183.64 170.38 251.46 119.72 326.87 86.79 M 468.27 224.31 C 452.62 229.1 447.36 250.95 461.15 260.86 C 475.85 273.37 500.47 255.32 493.37 237.69 C 489.58 227.88 478.84 221.23 468.27 224.31 M 541.27 224.32 C 528.12 228.82 522.01 246.81 531.25 257.79 C 540.82 270.41 563.55 265.48 567 250.01 C 572.21 235.24 555.85 220.08 541.27 224.32 Z" opacity="1.00" style="fill: rgb(244, 189, 26);"/>
    <path id="path13" d=" M 606.75 367.72 C 652.11 354.03 707.84 369.57 735.20 409.80 C 749.02 431.66 756.17 458.76 749.41 484.29 C 741.16 517.04 715.89 542.50 687.91 559.90 C 662.26 576.53 631.95 587.87 601.00 586.01 C 556.90 586.00 509.47 582.56 469.21 604.21 C 438.99 619.39 418.18 653.60 422.55 687.67 C 424.87 713.35 441.32 735.51 461.64 750.39 C 488.34 770.17 522.81 773.78 555.06 772.02 C 524.48 832.57 508.05 904.08 516.98 972.95 C 467.62 973.98 417.93 966.16 371.10 950.83 C 372.23 902.19 342.72 860.97 322.00 819.00 C 301.41 776.68 274.12 736.78 262.49 690.66 C 248.15 629.86 274.47 561.06 327.99 527.98 C 371.49 498.38 425.69 496.43 475.67 486.51 C 512.47 480.57 551.60 468.89 576.75 439.76 C 594.47 419.93 603.64 393.55 606.75 367.72 Z" opacity="1.00" style="fill: rgb(61, 190, 177);"/>
  </g>
  <g id="#284461ff" style="pointer-events: none;">
    <path id="path16" d="M 600.37 178.7 C 594.41 170.28 605.29 157.43 613.78 165.22 C 624.93 190.13 645.97 211.35 648.13 239.93 C 724.38 233.15 803.15 266 851.06 325.93 C 904.47 391.6 921.55 478.51 925.91 560.99 C 927.9 642.11 901 720.07 876 796.05 C 868.81 806.12 859.95 815.57 850.95 824.01 C 870.83 754.83 895.99 688.99 906.9 617.01 C 912.44 561.36 907.53 504.69 892.11 450.93 C 876.84 385.26 838.37 323.07 780.11 287.8 C 740.73 265.41 694.15 252.49 648.72 258.69 C 647.24 289.79 629.88 317.15 621 346.01 C 663.28 340.3 709.29 353.77 738.7 385.34 C 772.24 419.51 780.03 476.67 754.68 517.71 C 739.01 545.76 712.81 565.23 686.17 582.25 C 685.88 583.33 686.22 584.18 687.2 584.81 C 749.23 622.27 790.65 693.1 784.02 765 C 782.18 816.58 750.71 858.94 732.18 905.09 C 730.88 909.08 728.63 916.51 735.76 914.85 C 729.79 918.81 721.37 924.29 714 926.99 C 712.05 904.04 721.97 882.43 733.06 863.03 C 747.22 835.97 761.75 808.1 765.33 777.29 C 778.71 702.46 731.73 622.22 661.68 594.4 C 620.39 608.69 575.3 604.5 531.99 605.09 C 505.95 608.43 477.63 613.77 459.05 634.06 C 433.07 657.84 435.24 703.59 461.74 726.26 C 487.94 753.41 528.57 755.84 563.95 754.08 C 575.76 758.61 567.55 777.37 555.06 772.02 C 522.81 773.78 488.34 770.17 461.64 750.39 C 441.32 735.51 424.87 713.35 422.55 687.67 C 418.18 653.6 438.99 619.39 469.21 604.21 C 509.47 582.56 556.9 586 601 586.01 C 631.95 587.87 662.26 576.53 687.91 559.9 C 715.89 542.5 741.16 517.04 749.41 484.29 C 756.17 458.76 749.02 431.66 735.2 409.8 C 707.84 369.57 652.11 354.03 606.75 367.72 C 603.64 393.55 594.47 419.93 576.75 439.76 C 551.6 468.89 512.47 480.57 475.67 486.51 C 425.69 496.43 371.49 498.38 327.99 527.98 C 274.47 561.06 248.15 629.86 262.49 690.66 C 274.12 736.78 301.41 776.68 322 819 C 342.72 860.97 372.23 902.19 371.1 950.83 C 365.63 948.41 358.33 946.85 354.05 943.98 C 351.03 902.26 325.65 867.44 308.09 830.97 C 277.91 769.23 231.28 707.12 242.48 633.66 C 250.41 565.01 298.391 509.863 364.241 490.333 C 374.175 488.353 372.984 488.714 377.28 487.336 C 379.015 486.78 385.108 485.316 394.322 482.864 C 427.222 479.454 420.8 474.24 447.72 449.76 C 451.93 423.25 432.14 401.12 418.54 380.39 C 405.47 363.14 393.95 344.69 384.79 325.15 C 332.39 318.77 278.08 333.74 234.86 363.53 C 150.74 417.44 126.02 525.52 130.4 619.34 C 133.14 647.95 138.45 676.86 145.54 704.37 C 157.47 748.67 186.17 788.65 185 836.02 C 178.37 830.09 170.55 822.62 165.47 816.13 C 163.5 793.31 151.2 772.7 143.8 751.15 C 115.7 684.69 104.55 610.56 115.94 539.01 C 125.29 477.7 147.63 415.19 194.24 372.24 C 243.06 327.25 310.52 301.05 377.07 305.97 C 366.81 280.9 363.79 252.02 373.4 226.22 C 380.36 207.18 392.83 190.67 401.76 172.75 C 408.45 162.94 421.69 174.99 416.24 184.09 C 407.39 204.12 391.33 221.33 387.48 243.65 C 381.48 269.65 392.29 294.53 401.92 318.03 C 418.44 360.17 456.748 387.484 466.001 431.471 C 470.353 450.585 454.347 468.456 443.803 474.139 C 487.278 466.106 529.769 462.719 562.64 427.71 C 579.88 409.97 585.8 385.53 590.06 362.01 C 607.19 331.08 623.65 298.85 631.07 264.02 C 636.79 231.37 613.8 205.7 600.37 178.7 Z" opacity="1.00" style="fill: rgb(43, 69, 143);"/>
    <path id="path18" d=" M 468.27 224.31 C 478.84 221.23 489.58 227.88 493.37 237.69 C 500.47 255.32 475.85 273.37 461.15 260.86 C 447.36 250.95 452.62 229.10 468.27 224.31 Z" opacity="1.00" style="fill: rgb(43, 69, 143);"/>
    <path id="path20" d=" M 541.27 224.32 C 555.85 220.08 572.21 235.24 567.00 250.01 C 563.55 265.48 540.82 270.41 531.25 257.79 C 522.01 246.81 528.12 228.82 541.27 224.32 Z" opacity="1.00" style="fill: rgb(43, 69, 143);"/>
  </g>
  <g id="#017dbeff" style="pointer-events: none;">
    <path id="path23" d="M 648.72 258.69 C 694.15 252.49 740.73 265.41 780.11 287.8 C 838.37 323.07 876.84 385.26 892.11 450.93 C 907.53 504.69 912.44 561.36 906.9 617.01 C 895.99 688.99 869.899 753.737 850.019 822.917 C 816.759 858.787 776.926 889.661 734.196 913.991 C 727.066 915.651 730.88 909.08 732.18 905.09 C 750.71 858.94 782.18 816.58 784.02 765 C 790.65 693.1 749.23 622.27 687.2 584.81 C 686.22 584.18 685.88 583.33 686.17 582.25 C 712.81 565.23 739.01 545.76 754.68 517.71 C 780.03 476.67 772.24 419.51 738.7 385.34 C 709.29 353.77 663.28 340.3 621 346.01 C 629.88 317.15 647.24 289.79 648.72 258.69 Z" opacity="1.00" style="fill: rgb(23, 102, 85); paint-order: fill; stroke: rgb(23, 102, 85); stroke-width: 3px;"/>
  </g>
  <g id="#f57a1aff" style="pointer-events: none;" transform="matrix(1.002406, 0, 0, 1.001765, -0.736434, -0.571487)">
    <path id="path26" d="M 234.86 363.53 C 278.08 333.74 332.39 318.77 384.79 325.15 C 393.95 344.69 405.47 363.14 418.54 380.39 C 432.14 401.12 451.93 423.25 447.72 449.76 C 418.366 477.703 428.93 478.072 390.259 484.956 C 318.744 500.662 238.07 421.28 234.86 363.53 Z" opacity="1.00" style="fill: rgb(233, 71, 140); stroke: rgb(233, 71, 140);"/>
  </g>
  <g id="#e93340ff" style="pointer-events: none;">
    <path id="path29" d="M 130.4 619.34 C 126.02 525.52 150.74 417.44 234.86 363.53 C 261.069 419.053 272.864 425.162 308.223 460.727 C 325.743 473.861 341.904 480.979 350.487 485.429 C 356.345 484.748 425.527 472.695 394.092 484.54 C 315.669 497.101 250.41 565.01 242.48 633.66 C 231.28 707.12 277.91 769.23 308.09 830.97 C 325.65 867.44 351.03 902.26 354.05 943.98 C 290.47 922.26 232.15 882.96 185 836.02 C 186.17 788.65 157.47 748.67 145.54 704.37 C 138.45 676.86 133.14 647.95 130.4 619.34 Z" opacity="1.00" style="fill: rgb(233, 71, 140); stroke: rgb(233, 71, 140);"/>
  </g>
  <g id="#44b44aff" style="pointer-events: none;">
    <path id="path32" d=" M 531.99 605.09 C 575.30 604.50 620.39 608.69 661.68 594.40 C 731.73 622.22 778.71 702.46 765.33 777.29 C 761.75 808.10 747.22 835.97 733.06 863.03 C 721.97 882.43 712.05 904.04 714.00 926.99 C 654.38 957.14 584.49 971.70 516.98 972.95 C 508.05 904.08 524.48 832.57 555.06 772.02 C 567.55 777.37 575.76 758.61 563.95 754.08 C 528.57 755.84 487.94 753.41 461.74 726.26 C 435.24 703.59 433.07 657.84 459.05 634.06 C 477.63 613.77 505.95 608.43 531.99 605.09 Z" opacity="1.00" style="fill: rgb(149, 198, 61);"/>
  </g>
  <path id="path878" d="m 561.15524,764.40095 c -19.78584,39.81869 -30.79533,70.73598 -37.03588,92.96666 -4.46787,15.91587 -8.75341,49.13259 -9.20741,79.01704 -0.20514,13.50328 -0.009,21.37385 1.6871,31.61297" style="fill: none; stroke-width: 15; stroke-linecap: butt; stroke-linejoin: miter; stroke-miterlimit: 4; stroke-dasharray: none; stroke-opacity: 1; stroke: rgb(43, 69, 143); pointer-events: none;"/>
  <path id="path880" d="m 509.40331,968.14286 0.46084,4.52378 11.75015,-0.14286 2.81426,-0.0952 -0.89415,-6.28572 z" style="fill-opacity: 1; stroke-width: 0.734738px; stroke-linecap: butt; stroke-linejoin: miter; stroke-opacity: 1; stroke: rgb(43, 69, 143); fill: rgb(43, 69, 143); pointer-events: none;"/>
</svg>